<?xml version="1.0" encoding="utf-8"?>
<!-- Generator: Adobe Illustrator 24.0.3, SVG Export Plug-In . SVG Version: 6.00 Build 0)  -->
<svg version="1.1" id="Ebene_1" xmlns="http://www.w3.org/2000/svg" xmlns:xlink="http://www.w3.org/1999/xlink" x="0px" y="0px"
	 viewBox="0 0 836.83 526.91" style="enable-background:new 0 0 836.83 526.91;" xml:space="preserve">
<style type="text/css">
	.st0{fill:#ECEEEB;}
</style>
<rect class="st0" width="836.83" height="526.91"/>
<g>
	<path d="M324.3,475.94c-6.22-10.35-14.73-15.82-25.5-16.36c-10.8-0.59-26.3,5.22-46.52,17.36l-83.2,49.98h145.76
		C330.22,508.05,333.38,491.06,324.3,475.94z"/>
	<path d="M359.94,500.18c-3.79,8.88-8.99,17.79-15.62,26.73h45.13C377.68,518.62,367.84,509.71,359.94,500.18z"/>
	<path d="M649.15,463.21c-7.48,2.34-13.49,4.05-17.94,5.07c-8.73,1.83-17.9,2.77-27.56,2.77c-7.08,0-13.86-0.58-20.35-1.73
		c-1.85,4.52-4.05,8.96-6.63,13.31c-9.03,15.16-21.55,26.83-37.56,35.05c-7.47,3.79-16.32,6.86-26.52,9.22h111.97
		c12.06-17.6,21.15-38.23,27.26-61.91L649.15,463.21z"/>
	<path d="M50.66,460.73c7.55-20.68,16.93-37.55,28.12-50.63l-2.45-4.08c-25.12,3.98-48.46,2.13-70.02-5.57
		c-2.15-0.77-4.25-1.61-6.31-2.51v128.96h61.85c-2.7-2.96-5.19-6.31-7.46-10.08C44.35,500.11,43.1,481.41,50.66,460.73z"/>
	<path d="M734.36,469.1c-8.53,21.15-20.9,40.42-37.11,57.81h36.46c0.43-2,0.65-4.31,0.65-6.94V469.1z"/>
	<path d="M416.96,408.83c-28.79,10.26-43.19,28.28-43.19,54.05c0,12.31,3.83,23.89,11.5,34.84c4.6,6.64,12.35,14.95,23.25,24.83
		l-2.69,4.36h65.56v-128.3C450.43,399.8,432.29,403.21,416.96,408.83z"/>
	<path d="M831.55,34.03c0,5.84-2.18,11.38-6.55,16.62c-4.37,5.24-11.54,7.86-21.52,7.86c-12.89,0-26.16-6.67-39.82-20.01
		c-13.65-13.34-24.92-20.01-33.79-20.01c-15.25,0-26.16,4.94-32.75,14.83c-6.58,9.89-9.88,21.14-9.88,33.75
		c0,23.23,10.19,42.21,30.57,56.94c11.64,8.23,30.08,16.66,55.31,25.29v6.57c-17.19,5.71-29.46,11.22-36.8,16.53
		c-12.61,9.16-18.92,21.57-18.92,37.23c0,13.54,4.26,23.86,12.79,30.96c8.53,7.1,19.37,10.65,32.54,10.65
		c2.53,0,5.01-0.19,7.45-0.56c2.88-4.51,6.18-8.8,9.91-12.85c16.1-17.51,36.27-26.41,60.49-26.72V-0.19h-50.21
		c8.55,1.64,16.19,4.28,22.9,7.93C825.45,14.38,831.55,23.14,831.55,34.03z"/>
	<path d="M816.07,248.3c-2.87,11.09-4.3,29.85-4.3,56.28c0,26.8,1.37,45.56,4.11,56.28c4.22,16.02,12.45,24.29,24.69,24.84V223.48
		C828.43,224.1,820.26,232.37,816.07,248.3z"/>
	<path d="M645,29.58c4.83,5.49,9.03,11.69,12.61,18.58c4.69-6.3,10.27-12.27,16.73-17.92c18.41-16.23,40.49-26.38,66.24-30.43
		H595.14C614.43,3.81,631.05,13.73,645,29.58z"/>
	<path d="M60.11,170.9c13.3-4.29,24.03-6.9,32.2-7.83l0.03-0.02c-4.71-14.66-5.08-29.18-1.11-43.57
		C75,136.97,51.46,145.72,20.59,145.72c-6.83,0-13.69-0.61-20.59-1.8v58.76c5.95-4.39,12.33-8.63,19.16-12.73
		C33.16,181.54,46.81,175.19,60.11,170.9z"/>
	<path d="M47.5,114.23c7.29-7,10.94-16.22,10.94-27.65c0-10.84-3.94-20.11-11.83-27.8c-4.34-4.14-11.34-8.58-21-13.31L0,32.99v90.5
		c4.37,0.81,8.77,1.23,13.2,1.23C28.77,124.72,40.21,121.23,47.5,114.23z"/>
	<path d="M114.83,78.11c19.14-22.19,45.39-40.04,78.77-53.53c40.9-16.53,78.27-22.48,112.14-17.84
		c33.72,4.96,59.23,28.83,76.52,71.61l48.48,119.96V48.76c0-11.3-1.97-18.96-5.91-22.9c-3.94-3.98-11.52-6.79-22.73-8.36V4.62
		h102.73v35.47c7.36-12.26,14.54-21.28,21.55-27.06c8.03-6.47,17.48-10.87,28.34-13.22H98.57c13.07,14.95,19.61,32.93,19.61,53.93
		C118.19,62.08,117.07,70.2,114.83,78.11z"/>
	<path d="M642.9,221.52c-6.8,8.7-14.1,15.92-21.9,21.67c0.31,0,0.63-0.01,0.94-0.01c13.62,0,26.35,1.86,38.18,5.58
		c-2.68-5.55-4.33-11.62-4.91-18.22c0-11.28,2.6-21.34,7.8-30.16c5.2-8.83,13.62-16.09,25.26-21.8v-2.99
		c-7.35-2.8-13.84-6.22-19.49-10.24C664.11,186.7,655.48,205.43,642.9,221.52z"/>
	<path d="M360.36,307.3c-11.88,28.11-28.74,51.33-50.54,69.78c-1.41,1.21-2.83,2.39-4.26,3.54c13.49,2.93,25.17,9.52,35.06,19.79
		c4.87-14.62,13.37-28.66,25.49-42.13c7.63-8.48,16.97-15.36,28.03-20.64c-3.02-0.99-5.93-2.29-8.73-3.89
		C376.91,328.98,368.57,320.18,360.36,307.3z"/>
	<path d="M593.38,130.21c0-30.83-2.8-55.4-8.41-73.7c-5.61-18.3-16.99-27.46-34.16-27.46c-11.56,0-21.9,5.08-31,15.24
		c-9.11,10.16-13.66,17.52-13.66,22.07v130.85c0,5.25,4.34,12.04,13.01,20.36c8.67,8.32,18.44,12.48,29.3,12.48
		c19.44,0,32.58-12.87,39.41-38.62C591.54,177.25,593.38,156.84,593.38,130.21z"/>
	<path d="M507.07,398.06c-5.13-0.34-10.55-0.58-16.26-0.72v70.53c30.84-0.34,52.39-2.73,64.65-7.2c0.27-0.1,0.51-0.21,0.77-0.31
		c-8.8-4.48-16.88-10.36-24.25-17.65C519.76,430.6,511.47,415.72,507.07,398.06z"/>
	<path d="M506.14,227.69v45.45c0.18,24.17,0.35,37.75,0.53,40.73c0.38,4.42,1,8.4,1.85,11.95c5.55-19.55,15.58-36.11,30.1-49.69
		c6.99-6.53,14.37-12.09,22.12-16.68c-11.42-1.4-22.35-5.5-32.78-12.32C520.95,242.58,513.68,236.1,506.14,227.69z"/>
	<path d="M758.43,278.53c-10.51,3.44-21.69,5.17-33.55,5.17c-4.49,0-8.84-0.3-13.04-0.9c0.35,0.39,0.71,0.78,1.06,1.18
		c14.2,16.25,24.16,35.61,29.87,58.09c3.74-2.52,8-3.78,12.8-3.78c1.82,0,3.57,0.19,5.24,0.57c-3.54-10.49-5.32-21.92-5.32-34.28
		C755.49,295.37,756.47,286.68,758.43,278.53z"/>
	<path d="M779.99,371.23c-0.8-0.87-1.57-1.76-2.32-2.65c-1.07,3.5-3,6.64-5.78,9.43c-4.53,4.53-9.97,6.8-16.31,6.8
		c-2.53,0-4.91-0.36-7.15-1.06c0.09,2.64,0.13,5.31,0.13,8.02c0,5.27-0.17,10.46-0.5,15.57h28.58v113.81c0,2.19,0.11,4.1,0.33,5.77
		h63.61V398.04C816.23,397.74,796.03,388.8,779.99,371.23z"/>
	<path d="M657.47,301.49c-2.36-11.76-5.39-20.89-9.13-27.37c-6.45-10.91-15.45-16.37-27.07-16.37c-12.87,0-22.17,6.01-27.87,18.03
		c-5.74,12.02-8.59,29.71-8.59,53.07c0,39.39,3.74,69.01,11.26,88.87c7.48,19.86,20.08,29.8,37.79,29.8c4.1,0,8.77-0.77,14.07-2.3
		c5.25-1.53,8.41-2.98,9.53-4.35c0.89-1.02,1.96-7.16,3.21-18.41c1.25-11.25,1.87-24.55,1.87-39.9c0-17.05-0.36-32.35-1.07-45.91
		C660.76,323.1,659.43,311.38,657.47,301.49z"/>
	<path d="M334.41,303.98c3.91-6.57,7.95-15.86,12.09-27.92l-42.72-105.71c-17.37,12.49-31.28,26.79-41.77,42.79
		c-17.72,27.19-21.2,54.09-10.44,80.71c6.39,15.81,14.79,26.28,25.26,31.56c10.45,5.21,20.13,6.01,29.07,2.4
		C317.65,323.06,327.15,315.12,334.41,303.98z"/>
	<path d="M158.4,365.13c-8.17,6.18-17.19,12.23-27.07,18.17c-6.03,3.62-10.02,5.89-11.99,6.8c-1.96,0.92-4.79,2.48-8.49,4.7
		c-5.25,4.48-9.5,11.27-12.77,20.37c-3.34,9.41-2.73,17.91,1.82,25.5c3.62,6.03,8.08,9.7,13.37,11.02
		c5.29,1.32,11.09,0.62,17.39-2.11c3.15-1.36,9.58-4.76,19.28-10.19c9.7-5.43,17.18-9.72,22.43-12.88l33.78-19.61
		c-0.43-0.1-0.87-0.21-1.3-0.32C184.6,401.4,169.13,387.61,158.4,365.13z"/>
	<path d="M123.39,363.47c14.97-8.99,21.33-21.74,19.09-38.25c-2.25-16.51-10.96-37.4-26.14-62.68
		c-16.12-26.83-30.82-44.59-44.11-53.27c-13.29-8.69-27.12-8.71-41.51-0.07c-15.75,9.46-22.31,22.33-19.67,38.6
		c2.63,16.28,11.48,36.95,26.55,62.03c13.78,22.94,25.94,38.79,36.49,47.53C90.43,371.36,106.87,373.39,123.39,363.47z"/>
	<path d="M273.49,92.37c-8.64-21.39-19.56-35.37-32.74-41.93c-13.18-6.57-31.29-5.2-54.32,4.11c-12.93,5.22-22.59,11.93-28.98,20.12
		c-6.4,8.19-8.12,15.93-5.18,23.21c1.14,2.82,2.56,4.98,4.26,6.48c1.7,1.5,3.92,2.93,6.65,4.28l6.23,3.23
		c4.91,2.67,9.33,6,13.28,10.01c3.95,4.01,7.01,8.72,9.19,14.12c5.51,13.63,5.24,25.98-0.82,37.04
		c-4.17,7.62-9.75,13.76-16.73,18.43c0.43,0.31,0.86,0.61,1.28,0.92c10.25,7.6,18.94,17.33,26.07,29.19
		c0.61,1.02,1.2,2.04,1.78,3.06c23.21-23.61,53.63-50.18,91.27-79.76L273.49,92.37z"/>
	<path d="M574.72-2.21c-7.13,0-13.8,0.68-20,2.02h40.42C588.64-1.53,581.83-2.21,574.72-2.21z"/>
	<path d="M767.51-2.21c-9.38,0-18.35,0.67-26.92,2.02h49.77C783.36-1.53,775.74-2.21,767.51-2.21z"/>
</g>
</svg>
