<?xml version="1.0" encoding="utf-8"?>
<!-- Generator: Adobe Illustrator 24.0.3, SVG Export Plug-In . SVG Version: 6.00 Build 0)  -->
<svg version="1.1" id="Ebene_1" xmlns="http://www.w3.org/2000/svg" xmlns:xlink="http://www.w3.org/1999/xlink" x="0px" y="0px"
	 viewBox="0 0 70.8 33.8" style="enable-background:new 0 0 70.8 33.8;" xml:space="preserve">
<style type="text/css">
	.st0{fill:#151515;}
</style>
<g>
	<path class="st0" d="M18.7,21.7l0-4.5l-2.1,3.6h-1.5L13,17.4v4.3h-3v-9.8h2.7l3.2,5.2l3.1-5.2h2.7l0,9.8L18.7,21.7L18.7,21.7z"/>
	<path class="st0" d="M31.3,18.6H26c0.1,0.3,0.3,0.5,0.6,0.7c0.3,0.1,0.6,0.2,1,0.2c0.3,0,0.6,0,0.9-0.1c0.2-0.1,0.5-0.2,0.8-0.4
		l1.6,1.7c-0.8,0.8-1.9,1.2-3.4,1.2c-0.9,0-1.7-0.2-2.4-0.5s-1.2-0.8-1.6-1.4c-0.4-0.6-0.6-1.3-0.6-2c0-0.8,0.2-1.5,0.6-2
		c0.4-0.6,0.9-1.1,1.5-1.4s1.4-0.5,2.2-0.5c0.8,0,1.5,0.1,2.1,0.5s1.1,0.8,1.5,1.4c0.4,0.6,0.6,1.3,0.6,2.1
		C31.4,17.9,31.4,18.2,31.3,18.6z M26.4,16.3c-0.2,0.2-0.4,0.4-0.4,0.8h2.5c-0.1-0.3-0.2-0.6-0.4-0.8c-0.2-0.2-0.5-0.3-0.8-0.3
		C26.9,16.1,26.6,16.2,26.4,16.3z"/>
	<path class="st0" d="M37.8,13.9v2.8c-0.2,0-0.5-0.1-0.7-0.1c-1.1,0-1.6,0.5-1.6,1.6v3.4h-3.2v-7.7h3v0.8
		C35.9,14.2,36.8,13.9,37.8,13.9z"/>
	<path class="st0" d="M45.2,14.8c0.7,0.6,1.1,1.5,1.1,2.8v4.1h-2.9v-1c-0.4,0.8-1.1,1.1-2.2,1.1c-0.6,0-1.1-0.1-1.5-0.3
		c-0.4-0.2-0.8-0.5-1-0.9s-0.3-0.8-0.3-1.2c0-0.8,0.3-1.3,0.9-1.7s1.5-0.6,2.6-0.6H43c-0.1-0.6-0.6-0.9-1.4-0.9c-0.3,0-0.7,0-1,0.2
		s-0.7,0.2-0.9,0.4l-1-2.1c0.4-0.3,1-0.5,1.6-0.6c0.6-0.1,1.2-0.2,1.8-0.2C43.4,13.9,44.5,14.2,45.2,14.8z M42.7,19.8
		c0.2-0.1,0.3-0.3,0.4-0.5v-0.5h-0.8c-0.6,0-1,0.2-1,0.6c0,0.2,0.1,0.3,0.2,0.4s0.3,0.2,0.5,0.2C42.3,20,42.5,19.9,42.7,19.8z"/>
	<path class="st0" d="M51.3,19.4l-0.5,0.5v1.8h-3.2V11.3h3.2v5l2.2-2.2h3.7l-3.2,3.3l3.4,4.3h-3.8L51.3,19.4z"/>
	<path class="st0" d="M57.8,13c-0.3-0.3-0.5-0.7-0.5-1.1s0.2-0.9,0.5-1.2c0.3-0.3,0.8-0.5,1.4-0.5c0.6,0,1,0.1,1.4,0.4
		c0.3,0.3,0.5,0.7,0.5,1.1c0,0.5-0.2,0.9-0.5,1.2c-0.3,0.3-0.8,0.5-1.4,0.5C58.6,13.5,58.2,13.3,57.8,13z M57.6,14.1h3.2v7.7h-3.2
		V14.1z"/>
</g>
</svg>
