<?xml version="1.0" encoding="utf-8"?>
<!-- Generator: Adobe Illustrator 24.0.3, SVG Export Plug-In . SVG Version: 6.00 Build 0)  -->
<svg version="1.1" id="Ebene_1" xmlns="http://www.w3.org/2000/svg" xmlns:xlink="http://www.w3.org/1999/xlink" x="0px" y="0px"
	 viewBox="0 0 578.98 411.6" style="enable-background:new 0 0 578.98 411.6;" xml:space="preserve">
<g id="m8yB7l_1_">
	<g>
		<path d="M315.43,222.52c1.6,1.65,3.14,3.27,4.74,4.83c0.28,0.27,0.84,0.33,1.27,0.34c2.34,0.03,4.67,0.08,7.01-0.01
			c1.15-0.04,1.95,0.33,2.76,1.14c15.04,15.07,30.11,30.11,45.18,45.16c7.29,7.28,14.58,14.56,21.87,21.84
			c0.35,0.35,0.68,0.71,0.96,1c-6.18,6.2-12.28,12.33-18.59,18.67c-1.24-1.31-2.47-2.66-3.76-3.95
			c-21.47-21.47-42.95-42.93-64.45-64.37c-0.72-0.71-0.99-1.42-0.96-2.41c0.06-2.15,0.04-4.31,0-6.46c-0.01-0.46-0.11-1.05-0.4-1.36
			c-1.61-1.69-3.29-3.31-4.99-5c-19.29,15.31-41.09,20.85-65.21,16.09c-19.05-3.76-34.5-13.69-46.1-29.29
			c-22.81-30.7-19.1-74.75,7.96-100.94c28.13-27.22,73.37-29.14,103.39-3.88c16.22,13.65,25.26,31.22,27.06,52.36
			C334.96,187.4,328.74,206.11,315.43,222.52z M256.45,227.71c29.65,0.03,53.58-22.25,54.97-52.05
			c1.51-32.33-23.08-56.28-52.17-57.53c-30.96-1.34-56.02,21.69-57.45,51.98C200.28,202,224.8,227.58,256.45,227.71z"/>
	</g>
</g>
</svg>
