<?xml version="1.0" encoding="utf-8"?>
<!-- Generator: Adobe Illustrator 24.0.3, SVG Export Plug-In . SVG Version: 6.00 Build 0)  -->
<svg version="1.1" id="Ebene_1" xmlns="http://www.w3.org/2000/svg" xmlns:xlink="http://www.w3.org/1999/xlink" x="0px" y="0px"
	 viewBox="0 0 578.98 411.6" style="enable-background:new 0 0 578.98 411.6;" xml:space="preserve">
<style type="text/css">
	.st0{fill:#050505;}
</style>
<g id="m8yB7l_1_">
	<g>
		<path class="st0" d="M421.42,236.16c2.99,3.08,5.86,6.11,8.86,9.02c0.51,0.5,1.56,0.62,2.36,0.63c4.36,0.06,8.73,0.14,13.09-0.02
			c2.15-0.08,3.64,0.61,5.16,2.13c28.1,28.15,56.26,56.26,84.41,84.37c13.62,13.6,27.24,27.2,40.86,40.81
			c0.65,0.65,1.28,1.33,1.78,1.86c-11.54,11.59-22.94,23.03-34.73,34.87c-2.32-2.44-4.61-4.96-7.02-7.37
			c-40.12-40.11-80.24-80.2-120.41-120.26c-1.34-1.34-1.85-2.66-1.8-4.5c0.12-4.02,0.08-8.04,0-12.06
			c-0.02-0.87-0.21-1.97-0.76-2.55c-3-3.15-6.14-6.18-9.33-9.34c-36.03,28.61-76.76,38.96-121.83,30.06
			c-35.59-7.03-64.46-25.57-86.12-54.73c-42.62-57.35-35.68-139.65,14.87-188.58c52.55-50.86,137.07-54.44,193.15-7.25
			c30.31,25.51,47.19,58.33,50.56,97.81C457.9,170.55,446.29,205.5,421.42,236.16z M311.23,245.84
			c55.4,0.06,100.09-41.57,102.69-97.25c2.82-60.41-43.12-105.13-97.47-107.48c-57.84-2.5-104.65,40.53-107.33,97.11
			C206.3,197.82,252.11,245.6,311.23,245.84z"/>
	</g>
</g>
</svg>
