<?xml version="1.0" encoding="utf-8"?>
<!-- Generator: Adobe Illustrator 24.0.3, SVG Export Plug-In . SVG Version: 6.00 Build 0)  -->
<svg version="1.1" id="Ebene_1" xmlns="http://www.w3.org/2000/svg" xmlns:xlink="http://www.w3.org/1999/xlink" x="0px" y="0px"
	 viewBox="0 0 578.98 411.6" style="enable-background:new 0 0 578.98 411.6;" xml:space="preserve">
<style type="text/css">
	.st0{fill:#050505;}
</style>
<g id="m8yB7l_1_">
	<g>
		<path class="st0" d="M287.75,224.63c0.6,0.61,1.17,1.22,1.76,1.79c0.1,0.1,0.31,0.12,0.47,0.12c0.87,0.01,1.74,0.03,2.6,0
			c0.43-0.02,0.72,0.12,1.03,0.42c5.59,5.6,11.19,11.19,16.79,16.79c2.71,2.71,5.42,5.41,8.13,8.12c0.13,0.13,0.25,0.26,0.35,0.37
			c-2.3,2.31-4.56,4.58-6.91,6.94c-0.46-0.49-0.92-0.99-1.4-1.47c-7.98-7.98-15.96-15.96-23.95-23.93c-0.27-0.27-0.37-0.53-0.36-0.9
			c0.02-0.8,0.02-1.6,0-2.4c0-0.17-0.04-0.39-0.15-0.51c-0.6-0.63-1.22-1.23-1.86-1.86c-7.17,5.69-15.27,7.75-24.24,5.98
			c-7.08-1.4-12.82-5.09-17.13-10.89c-8.48-11.41-7.1-27.78,2.96-37.52c10.45-10.12,27.27-10.83,38.43-1.44
			c6.03,5.07,9.39,11.61,10.06,19.46C295.01,211.58,292.7,218.53,287.75,224.63z M265.83,226.56c11.02,0.01,19.91-8.27,20.43-19.35
			c0.56-12.02-8.58-20.92-19.39-21.38c-11.51-0.5-20.82,8.06-21.35,19.32C244.96,217,254.07,226.51,265.83,226.56z"/>
	</g>
</g>
</svg>
