<?xml version="1.0" encoding="utf-8"?>
<!-- Generator: Adobe Illustrator 24.0.3, SVG Export Plug-In . SVG Version: 6.00 Build 0)  -->
<svg version="1.1" id="Ebene_1" xmlns="http://www.w3.org/2000/svg" xmlns:xlink="http://www.w3.org/1999/xlink" x="0px" y="0px"
	 viewBox="0 0 1920 867.17" style="enable-background:new 0 0 1920 867.17;" xml:space="preserve">
<style type="text/css">
	.st0{fill:#F9F9F9;}
	.st1{fill:#DADBED;}
	.st2{clip-path:url(#XMLID_8_);}
	.st3{clip-path:url(#XMLID_8_);fill:#606995;}
	.st4{fill:#8990C3;}
	.st5{fill:#29367A;}
	.st6{clip-path:url(#XMLID_9_);}
	.st7{clip-path:url(#XMLID_9_);fill:#8990C3;}
	.st8{fill:#151515;}
	.st9{clip-path:url(#XMLID_10_);}
	.st10{clip-path:url(#XMLID_10_);fill:#606995;}
	.st11{fill:#606995;}
	.st12{fill:#EDBAB8;}
	.st13{clip-path:url(#XMLID_11_);}
	.st14{clip-path:url(#XMLID_11_);fill:#DA615E;}
	.st15{fill:#E49392;}
	.st16{fill:#D44037;}
	.st17{clip-path:url(#XMLID_12_);}
	.st18{clip-path:url(#XMLID_12_);fill:#E49392;}
	.st19{fill:#DA615E;}
	.st20{clip-path:url(#XMLID_13_);}
	.st21{clip-path:url(#XMLID_13_);fill:#DA615E;}
	.st22{fill:#D14E48;}
</style>
<rect class="st0" width="1920" height="867.17"/>
<rect x="-0.68" y="463.35" class="st1" width="640.45" height="403.82"/>
<g>
	<defs>
		<circle id="XMLID_1_" cx="319.55" cy="485.79" r="320.23"/>
	</defs>
	<use xlink:href="#XMLID_1_"  style="overflow:visible;fill:#DADBED;"/>
	<clipPath id="XMLID_8_">
		<use xlink:href="#XMLID_1_"  style="overflow:visible;"/>
	</clipPath>
	<g class="st2">
		<rect x="-38.53" y="202.75" class="st1" width="678.3" height="603.26"/>
	</g>
	<rect x="269.99" y="672.5" class="st3" width="86.76" height="179.6"/>
	<g class="st2">
		<g>
			<ellipse class="st4" cx="315.86" cy="509.15" rx="169.51" ry="212.18"/>
		</g>
		<g>
			<ellipse class="st4" cx="146.35" cy="514.11" rx="47.11" ry="57.23"/>
		</g>
		<g>
			<ellipse class="st4" cx="483.68" cy="514.11" rx="47.11" ry="57.23"/>
		</g>
	</g>
	<g class="st2">
		<g>
			<path class="st5" d="M353.29,505.05h-72.91c-0.05,0-0.09-0.04-0.09-0.09v-22.2c0-0.05,0.04-0.09,0.09-0.09h72.91
				c0.05,0,0.09,0.04,0.09,0.09v22.2C353.39,505.01,353.34,505.05,353.29,505.05z"/>
		</g>
		<g>
			<g>
				<path class="st5" d="M487.86,526.16c-0.11,0-0.22-0.01-0.33-0.02c-1.38-0.18-2.34-1.45-2.16-2.82
					c3.21-24.11,27.61-29.42,27.86-29.47c1.35-0.26,2.68,0.59,2.97,1.95c0.28,1.36-0.59,2.69-1.95,2.98
					c-0.86,0.18-21.16,4.69-23.9,25.21C490.18,525.24,489.1,526.16,487.86,526.16z"/>
			</g>
			<g>
				<path class="st5" d="M298.27,643.79c-11.98,0-21.39-3.31-28.07-9.92c-15.57-15.39-10.3-42.65-10.07-43.8
					c0.27-1.36,1.59-2.25,2.96-1.97c1.36,0.28,2.24,1.6,1.97,2.96c-0.05,0.26-4.96,25.78,8.69,39.25
					c8.47,8.36,22.47,10.53,41.58,6.47c1.36-0.31,2.69,0.58,2.98,1.94c0.29,1.36-0.58,2.69-1.94,2.98
					C309.82,643.09,303.77,643.79,298.27,643.79z"/>
			</g>
			<g>
				<circle class="st5" cx="231.96" cy="493.86" r="69.81"/>
			</g>
			<g>
				<circle class="st5" cx="403.38" cy="493.86" r="69.81"/>
			</g>
			<g>
				<circle class="st5" cx="387.19" cy="585.79" r="4.77"/>
			</g>
			<g>
				<path class="st5" d="M145.7,526.16c-1.24,0-2.32-0.92-2.49-2.18c-2.75-20.61-23.68-25.17-23.89-25.21
					c-1.36-0.28-2.24-1.61-1.95-2.97c0.28-1.36,1.63-2.24,2.97-1.95c0.25,0.05,24.65,5.36,27.86,29.47
					c0.18,1.38-0.78,2.64-2.16,2.82C145.92,526.15,145.81,526.16,145.7,526.16z"/>
			</g>
		</g>
	</g>
	<g class="st2">
		<path class="st1" d="M380.48,258.42c0,0,19.31,30.58-4.76,68.17c-15.26,23.84-47.96,50.49-114.09,73.95
			C91.24,461,107.46,581.03,107.46,581.03l-0.41,160.14H-38.53V207.37h386.34L380.48,258.42z"/>
	</g>
	<g class="st2">
		<path class="st1" d="M483.68,762.57h17.11h138.98V217.49l-338.01-14.75c0,0,53.42,162.97,115.35,195.77s127.08,49.01,113.67,159.6
			c-13.4,110.59-66.49,179.9-66.49,179.9"/>
	</g>
</g>
<rect x="639.77" y="463.35" class="st5" width="640.45" height="403.82"/>
<g>
	<defs>
		<circle id="XMLID_2_" cx="960" cy="485.79" r="320.23"/>
	</defs>
	<use xlink:href="#XMLID_2_"  style="overflow:visible;fill:#29367A;"/>
	<clipPath id="XMLID_9_">
		<use xlink:href="#XMLID_2_"  style="overflow:visible;"/>
	</clipPath>
	<g class="st6">
		<rect x="601.93" y="202.75" class="st5" width="678.3" height="603.26"/>
	</g>
	<rect x="910.44" y="699.88" class="st7" width="86.76" height="167.3"/>
	<g class="st6">
		<ellipse class="st1" cx="956.32" cy="509.15" rx="169.51" ry="212.18"/>
	</g>
	<g class="st6">
		<ellipse class="st1" cx="786.8" cy="514.11" rx="47.11" ry="57.23"/>
	</g>
	<g class="st6">
		<ellipse class="st1" cx="1124.13" cy="514.11" rx="47.11" ry="57.23"/>
	</g>
	<g class="st6">
		<g>
			<path class="st4" d="M1128.31,526.16c-0.11,0-0.22-0.01-0.33-0.02c-1.38-0.18-2.34-1.45-2.16-2.82
				c3.21-24.11,27.61-29.42,27.86-29.47c1.35-0.26,2.69,0.59,2.97,1.95c0.28,1.36-0.59,2.69-1.95,2.98
				c-0.86,0.18-21.16,4.69-23.9,25.21C1130.63,525.24,1129.55,526.16,1128.31,526.16z"/>
		</g>
		<g>
			<path class="st4" d="M938.73,643.79c-11.98,0-21.39-3.31-28.07-9.92c-15.57-15.39-10.3-42.65-10.07-43.8
				c0.27-1.36,1.59-2.25,2.96-1.97c1.36,0.28,2.24,1.6,1.97,2.96c-0.05,0.26-4.96,25.78,8.69,39.25
				c8.47,8.36,22.47,10.53,41.58,6.47c1.36-0.31,2.69,0.58,2.98,1.94c0.29,1.36-0.58,2.69-1.94,2.98
				C950.27,643.09,944.22,643.79,938.73,643.79z"/>
		</g>
		<g>
			<circle class="st4" cx="872.41" cy="493.86" r="69.81"/>
		</g>
		<g>
			<circle class="st4" cx="1043.83" cy="493.86" r="69.81"/>
		</g>
		<g>
			<path class="st4" d="M993.74,505.05h-72.91c-0.05,0-0.09-0.04-0.09-0.09v-22.2c0-0.05,0.04-0.09,0.09-0.09h72.91
				c0.05,0,0.09,0.04,0.09,0.09v22.2C993.84,505.01,993.8,505.05,993.74,505.05z"/>
		</g>
		<g>
			<circle class="st4" cx="1027.64" cy="585.79" r="4.77"/>
		</g>
		<g>
			<path class="st4" d="M786.15,526.16c-1.24,0-2.32-0.92-2.49-2.18c-2.75-20.61-23.68-25.17-23.89-25.21
				c-1.36-0.28-2.24-1.61-1.95-2.97c0.28-1.36,1.63-2.24,2.97-1.95c0.25,0.05,24.65,5.36,27.86,29.47c0.18,1.38-0.78,2.64-2.16,2.82
				C786.37,526.15,786.26,526.16,786.15,526.16z"/>
		</g>
	</g>
	<g class="st6">
		<path class="st5" d="M1020.94,258.42c0,0,19.31,30.58-4.76,68.17c-15.26,23.84-47.96,50.49-114.09,73.95
			C731.69,461,747.91,581.03,747.91,581.03l-0.41,160.14H601.93V207.37h386.34L1020.94,258.42z"/>
	</g>
	<g class="st6">
		<path class="st5" d="M1124.13,762.57h17.11h138.98V217.49l-338.01-14.75c0,0,53.42,162.97,115.35,195.77
			s127.08,49.01,113.67,159.6s-66.49,179.9-66.49,179.9"/>
	</g>
</g>
<rect x="910.44" y="746.17" class="st4" width="86.76" height="121.01"/>
<rect x="1280.23" y="463.35" class="st8" width="640.45" height="403.82"/>
<g>
	<defs>
		<circle id="XMLID_3_" cx="1600.45" cy="485.79" r="320.23"/>
	</defs>
	<use xlink:href="#XMLID_3_"  style="overflow:visible;fill:#151515;"/>
	<clipPath id="XMLID_10_">
		<use xlink:href="#XMLID_3_"  style="overflow:visible;"/>
	</clipPath>
	<g class="st9">
		<rect x="1242.38" y="202.75" class="st8" width="678.3" height="603.26"/>
	</g>
	<rect x="1550.89" y="687.58" class="st10" width="86.76" height="179.6"/>
	<g class="st9">
		<g>
			<ellipse class="st4" cx="1596.77" cy="509.15" rx="169.51" ry="212.18"/>
		</g>
		<g>
			<ellipse class="st4" cx="1427.26" cy="514.11" rx="47.11" ry="57.23"/>
		</g>
		<g>
			<ellipse class="st4" cx="1764.59" cy="514.11" rx="47.11" ry="57.23"/>
		</g>
	</g>
	<g class="st9">
		<g>
			<path class="st5" d="M1768.76,526.16c-0.11,0-0.22-0.01-0.33-0.02c-1.38-0.18-2.34-1.45-2.16-2.82
				c3.21-24.11,27.61-29.42,27.86-29.47c1.35-0.26,2.69,0.59,2.97,1.95c0.28,1.36-0.59,2.69-1.95,2.98
				c-0.86,0.18-21.16,4.69-23.9,25.21C1771.08,525.24,1770,526.16,1768.76,526.16z"/>
		</g>
		<g>
			<path class="st5" d="M1579.18,643.79c-11.98,0-21.39-3.31-28.07-9.92c-15.57-15.39-10.3-42.65-10.07-43.8
				c0.27-1.36,1.59-2.25,2.96-1.97c1.36,0.28,2.24,1.6,1.97,2.96c-0.05,0.26-4.96,25.78,8.69,39.25
				c8.47,8.36,22.47,10.53,41.58,6.47c1.36-0.31,2.69,0.58,2.98,1.94c0.29,1.36-0.58,2.69-1.94,2.98
				C1590.72,643.09,1584.68,643.79,1579.18,643.79z"/>
		</g>
		<g>
			<circle class="st5" cx="1512.86" cy="493.86" r="69.81"/>
		</g>
		<g>
			<circle class="st5" cx="1684.28" cy="493.86" r="69.81"/>
		</g>
		<g>
			<path class="st5" d="M1634.2,505.05h-72.91c-0.05,0-0.09-0.04-0.09-0.09v-22.2c0-0.05,0.04-0.09,0.09-0.09h72.91
				c0.05,0,0.09,0.04,0.09,0.09v22.2C1634.29,505.01,1634.25,505.05,1634.2,505.05z"/>
		</g>
		<g>
			<circle class="st5" cx="1668.09" cy="585.79" r="4.77"/>
		</g>
		<g>
			<path class="st5" d="M1426.6,526.16c-1.24,0-2.32-0.92-2.49-2.18c-2.75-20.61-23.68-25.17-23.89-25.21
				c-1.36-0.28-2.24-1.61-1.95-2.97c0.28-1.36,1.63-2.24,2.97-1.95c0.25,0.05,24.65,5.36,27.86,29.47c0.18,1.38-0.78,2.64-2.16,2.82
				C1426.83,526.15,1426.72,526.16,1426.6,526.16z"/>
		</g>
	</g>
	<g class="st9">
		<path class="st8" d="M1661.39,258.42c0,0,19.31,30.58-4.76,68.17c-15.26,23.84-47.96,50.49-114.09,73.95
			c-170.4,60.46-154.18,180.49-154.18,180.49l-0.41,160.14h-145.57V207.37h386.34L1661.39,258.42z"/>
	</g>
	<g class="st9">
		<path class="st8" d="M1764.59,762.57h17.11h138.98V217.49l-338.01-14.75c0,0,53.42,162.97,115.35,195.77
			s127.08,49.01,113.67,159.6s-66.49,179.9-66.49,179.9"/>
	</g>
</g>
<rect x="1550.89" y="755.14" class="st11" width="86.76" height="112.03"/>
<rect x="269.99" y="746.17" class="st11" width="86.76" height="121.01"/>
<rect y="-994.9" class="st0" width="1920" height="867.17"/>
<g>
	<rect x="-0.68" y="-531.55" class="st12" width="640.45" height="403.82"/>
	<g>
		<defs>
			<circle id="XMLID_6_" cx="319.55" cy="-509.11" r="320.23"/>
		</defs>
		<use xlink:href="#XMLID_6_"  style="overflow:visible;fill:#EDBAB8;"/>
		<clipPath id="XMLID_11_">
			<use xlink:href="#XMLID_6_"  style="overflow:visible;"/>
		</clipPath>
		<g class="st13">
			<rect x="-38.53" y="-792.15" class="st12" width="678.3" height="603.26"/>
		</g>
		<rect x="269.99" y="-322.4" class="st14" width="86.76" height="179.6"/>
		<g class="st13">
			<ellipse class="st15" cx="315.86" cy="-485.74" rx="169.51" ry="212.18"/>
		</g>
		<g class="st13">
			<ellipse class="st15" cx="146.35" cy="-480.78" rx="47.11" ry="57.23"/>
		</g>
		<g class="st13">
			<ellipse class="st15" cx="483.68" cy="-480.78" rx="47.11" ry="57.23"/>
		</g>
		<g class="st13">
			<g>
				<path class="st16" d="M353.29-489.84h-72.91c-0.05,0-0.09-0.04-0.09-0.09v-22.2c0-0.05,0.04-0.09,0.09-0.09h72.91
					c0.05,0,0.09,0.04,0.09,0.09v22.2C353.39-489.89,353.34-489.84,353.29-489.84z"/>
			</g>
			<g>
				<g>
					<path class="st16" d="M487.86-468.74c-0.11,0-0.22-0.01-0.33-0.02c-1.38-0.18-2.34-1.45-2.16-2.82
						c3.21-24.11,27.61-29.42,27.86-29.47c1.35-0.26,2.68,0.59,2.97,1.95c0.28,1.36-0.59,2.69-1.95,2.98
						c-0.86,0.18-21.16,4.69-23.9,25.21C490.18-469.66,489.1-468.74,487.86-468.74z"/>
				</g>
				<g>
					<path class="st16" d="M298.27-351.11c-11.98,0-21.39-3.31-28.07-9.92c-15.57-15.39-10.3-42.65-10.07-43.8
						c0.27-1.36,1.59-2.25,2.96-1.97c1.36,0.28,2.24,1.6,1.97,2.96c-0.05,0.26-4.96,25.78,8.69,39.25
						c8.47,8.36,22.47,10.53,41.58,6.47c1.36-0.31,2.69,0.58,2.98,1.94s-0.58,2.69-1.94,2.98
						C309.82-351.81,303.77-351.11,298.27-351.11z"/>
				</g>
				<g>
					<circle class="st16" cx="231.96" cy="-501.04" r="69.81"/>
				</g>
				<g>
					<circle class="st16" cx="403.38" cy="-501.04" r="69.81"/>
				</g>
				<g>
					<circle class="st16" cx="387.19" cy="-409.1" r="4.77"/>
				</g>
				<g>
					<path class="st16" d="M145.7-468.74c-1.24,0-2.32-0.92-2.49-2.18c-2.75-20.61-23.68-25.17-23.89-25.21
						c-1.36-0.28-2.24-1.61-1.95-2.97c0.28-1.36,1.63-2.24,2.97-1.95c0.25,0.05,24.65,5.36,27.86,29.47
						c0.18,1.38-0.78,2.64-2.16,2.82C145.92-468.75,145.81-468.74,145.7-468.74z"/>
				</g>
			</g>
		</g>
		<g class="st13">
			<path class="st12" d="M380.48-736.48c0,0,19.31,30.58-4.76,68.17c-15.26,23.84-47.96,50.49-114.09,73.95
				C91.24-533.9,107.46-413.87,107.46-413.87l-0.41,160.14H-38.53v-533.79h386.34L380.48-736.48z"/>
		</g>
		<g class="st13">
			<path class="st12" d="M483.68-232.32h17.11h138.98V-777.4l-338.01-14.75c0,0,53.42,162.97,115.35,195.77
				c61.93,32.79,127.08,49.01,113.67,159.6c-13.4,110.59-66.49,179.9-66.49,179.9"/>
		</g>
	</g>
	<rect x="639.77" y="-531.55" class="st16" width="640.45" height="403.82"/>
	<g>
		<defs>
			<circle id="XMLID_5_" cx="960" cy="-509.11" r="320.23"/>
		</defs>
		<use xlink:href="#XMLID_5_"  style="overflow:visible;fill:#D44037;"/>
		<clipPath id="XMLID_12_">
			<use xlink:href="#XMLID_5_"  style="overflow:visible;"/>
		</clipPath>
		<g class="st17">
			<rect x="601.93" y="-792.15" class="st16" width="678.3" height="603.26"/>
		</g>
		<rect x="910.44" y="-295.02" class="st18" width="86.76" height="167.3"/>
		<g class="st17">
			<ellipse class="st12" cx="956.32" cy="-485.74" rx="169.51" ry="212.18"/>
		</g>
		<g class="st17">
			<ellipse class="st12" cx="786.8" cy="-480.78" rx="47.11" ry="57.23"/>
		</g>
		<g class="st17">
			<ellipse class="st12" cx="1124.13" cy="-480.78" rx="47.11" ry="57.23"/>
		</g>
		<g class="st17">
			<g>
				<path class="st19" d="M1128.31-468.74c-0.11,0-0.22-0.01-0.33-0.02c-1.38-0.18-2.34-1.45-2.16-2.82
					c3.21-24.11,27.61-29.42,27.86-29.47c1.35-0.26,2.69,0.59,2.97,1.95c0.28,1.36-0.59,2.69-1.95,2.98
					c-0.86,0.18-21.16,4.69-23.9,25.21C1130.63-469.66,1129.55-468.74,1128.31-468.74z"/>
			</g>
			<g>
				<path class="st19" d="M938.73-351.11c-11.98,0-21.39-3.31-28.07-9.92c-15.57-15.39-10.3-42.65-10.07-43.8
					c0.27-1.36,1.59-2.25,2.96-1.97c1.36,0.28,2.24,1.6,1.97,2.96c-0.05,0.26-4.96,25.78,8.69,39.25
					c8.47,8.36,22.47,10.53,41.58,6.47c1.36-0.31,2.69,0.58,2.98,1.94s-0.58,2.69-1.94,2.98
					C950.27-351.81,944.22-351.11,938.73-351.11z"/>
			</g>
			<g>
				<circle class="st19" cx="872.41" cy="-501.04" r="69.81"/>
			</g>
			<g>
				<circle class="st19" cx="1043.83" cy="-501.04" r="69.81"/>
			</g>
			<g>
				<path class="st19" d="M993.74-489.84h-72.91c-0.05,0-0.09-0.04-0.09-0.09v-22.2c0-0.05,0.04-0.09,0.09-0.09h72.91
					c0.05,0,0.09,0.04,0.09,0.09v22.2C993.84-489.89,993.8-489.84,993.74-489.84z"/>
			</g>
			<g>
				<circle class="st19" cx="1027.64" cy="-409.1" r="4.77"/>
			</g>
			<g>
				<path class="st19" d="M786.15-468.74c-1.24,0-2.32-0.92-2.49-2.18c-2.75-20.61-23.68-25.17-23.89-25.21
					c-1.36-0.28-2.24-1.61-1.95-2.97c0.28-1.36,1.63-2.24,2.97-1.95c0.25,0.05,24.65,5.36,27.86,29.47
					c0.18,1.38-0.78,2.64-2.16,2.82C786.37-468.75,786.26-468.74,786.15-468.74z"/>
			</g>
		</g>
		<g class="st17">
			<path class="st16" d="M1020.94-736.48c0,0,19.31,30.58-4.76,68.17c-15.26,23.84-47.96,50.49-114.09,73.95
				c-170.4,60.46-154.18,180.49-154.18,180.49l-0.41,160.14H601.93v-533.79h386.34L1020.94-736.48z"/>
		</g>
		<g class="st17">
			<path class="st16" d="M1124.13-232.32h17.11h138.98V-777.4l-338.01-14.75c0,0,53.42,162.97,115.35,195.77
				c61.93,32.79,127.08,49.01,113.67,159.6s-66.49,179.9-66.49,179.9"/>
		</g>
	</g>
	<rect x="910.44" y="-248.73" class="st15" width="86.76" height="121.01"/>
	<rect x="1280.23" y="-531.55" class="st8" width="640.45" height="403.82"/>
	<g>
		<defs>
			<circle id="XMLID_4_" cx="1600.45" cy="-509.11" r="320.23"/>
		</defs>
		<use xlink:href="#XMLID_4_"  style="overflow:visible;fill:#151515;"/>
		<clipPath id="XMLID_13_">
			<use xlink:href="#XMLID_4_"  style="overflow:visible;"/>
		</clipPath>
		<g class="st20">
			<rect x="1242.38" y="-792.15" class="st8" width="678.3" height="603.26"/>
		</g>
		<rect x="1550.89" y="-307.32" class="st21" width="86.76" height="179.6"/>
		<g class="st20">
			<ellipse class="st15" cx="1596.77" cy="-485.74" rx="169.51" ry="212.18"/>
		</g>
		<g class="st20">
			<ellipse class="st15" cx="1427.26" cy="-480.78" rx="47.11" ry="57.23"/>
		</g>
		<g class="st20">
			<ellipse class="st15" cx="1764.59" cy="-480.78" rx="47.11" ry="57.23"/>
		</g>
		<g class="st20">
			<path class="st22" d="M1768.76-468.74c-0.11,0-0.22-0.01-0.33-0.02c-1.38-0.18-2.34-1.45-2.16-2.82
				c3.21-24.11,27.61-29.42,27.86-29.47c1.35-0.26,2.69,0.59,2.97,1.95c0.28,1.36-0.59,2.69-1.95,2.98
				c-0.86,0.18-21.16,4.69-23.9,25.21C1771.08-469.66,1770-468.74,1768.76-468.74z"/>
		</g>
		<g class="st20">
			<path class="st22" d="M1579.18-351.11c-11.98,0-21.39-3.31-28.07-9.92c-15.57-15.39-10.3-42.65-10.07-43.8
				c0.27-1.36,1.59-2.25,2.96-1.97c1.36,0.28,2.24,1.6,1.97,2.96c-0.05,0.26-4.96,25.78,8.69,39.25
				c8.47,8.36,22.47,10.53,41.58,6.47c1.36-0.31,2.69,0.58,2.98,1.94c0.29,1.36-0.58,2.69-1.94,2.98
				C1590.72-351.81,1584.68-351.11,1579.18-351.11z"/>
		</g>
		<g class="st20">
			<circle class="st22" cx="1512.86" cy="-501.04" r="69.81"/>
		</g>
		<g class="st20">
			<circle class="st22" cx="1684.28" cy="-501.04" r="69.81"/>
		</g>
		<g class="st20">
			<path class="st22" d="M1634.2-489.84h-72.91c-0.05,0-0.09-0.04-0.09-0.09v-22.2c0-0.05,0.04-0.09,0.09-0.09h72.91
				c0.05,0,0.09,0.04,0.09,0.09v22.2C1634.29-489.89,1634.25-489.84,1634.2-489.84z"/>
		</g>
		<g class="st20">
			<circle class="st22" cx="1668.09" cy="-409.1" r="4.77"/>
		</g>
		<g class="st20">
			<path class="st22" d="M1426.6-468.74c-1.24,0-2.32-0.92-2.49-2.18c-2.75-20.61-23.68-25.17-23.89-25.21
				c-1.36-0.28-2.24-1.61-1.95-2.97c0.28-1.36,1.63-2.24,2.97-1.95c0.25,0.05,24.65,5.36,27.86,29.47c0.18,1.38-0.78,2.64-2.16,2.82
				C1426.83-468.75,1426.72-468.74,1426.6-468.74z"/>
		</g>
		<g class="st20">
			<path class="st8" d="M1661.39-736.48c0,0,19.31,30.58-4.76,68.17c-15.26,23.84-47.96,50.49-114.09,73.95
				c-170.4,60.46-154.18,180.49-154.18,180.49l-0.41,160.14h-145.57v-533.79h386.34L1661.39-736.48z"/>
		</g>
		<g class="st20">
			<path class="st8" d="M1764.59-232.32h17.11h138.98V-777.4l-338.01-14.75c0,0,53.42,162.97,115.35,195.77
				c61.93,32.79,127.08,49.01,113.67,159.6s-66.49,179.9-66.49,179.9"/>
		</g>
	</g>
	<rect x="1550.89" y="-239.76" class="st19" width="86.76" height="112.03"/>
	<rect x="269.99" y="-248.73" class="st19" width="86.76" height="121.01"/>
</g>
<rect x="-527.17" y="207.7" class="st1" width="243.5" height="243.5"/>
<rect x="-527.17" y="-77.94" class="st11" width="243.5" height="243.5"/>
<rect x="-527.17" y="485.79" class="st4" width="243.5" height="243.5"/>
<rect x="-527.17" y="745.42" class="st5" width="243.5" height="243.5"/>
</svg>
